<?xml version="1.0" encoding="UTF-8" standalone="no"?>
<svg
   xmlns:dc="http://purl.org/dc/elements/1.1/"
   xmlns:cc="http://creativecommons.org/ns#"
   xmlns:rdf="http://www.w3.org/1999/02/22-rdf-syntax-ns#"
   xmlns:svg="http://www.w3.org/2000/svg"
   xmlns="http://www.w3.org/2000/svg"
   xmlns:sodipodi="http://sodipodi.sourceforge.net/DTD/sodipodi-0.dtd"
   xmlns:inkscape="http://www.inkscape.org/namespaces/inkscape"
   inkscape:version="1.0 (4035a4fb49, 2020-05-01)"
   sodipodi:docname="L&amp;T Logo.svg"
   id="svg8"
   version="1.1"
   viewBox="0 0 50.25 50.25"
   height="50.25mm"
   width="50.25mm">
  <defs
     id="defs2" />
  <sodipodi:namedview
     inkscape:window-maximized="1"
     inkscape:window-y="-8"
     inkscape:window-x="-8"
     inkscape:window-height="1002"
     inkscape:window-width="1920"
     showgrid="false"
     inkscape:document-rotation="0"
     inkscape:current-layer="layer1"
     inkscape:document-units="mm"
     inkscape:cy="94.488189"
     inkscape:cx="94.866143"
     inkscape:zoom="3.7414623"
     inkscape:pageshadow="2"
     inkscape:pageopacity="0.0"
     borderopacity="1.0"
     bordercolor="#666666"
     pagecolor="#ffffff"
     id="base" />
  <metadata
     id="metadata5">
    <rdf:RDF>
      <cc:Work
         rdf:about="">
        <dc:format>image/svg+xml</dc:format>
        <dc:type
           rdf:resource="http://purl.org/dc/dcmitype/StillImage" />
        <dc:title></dc:title>
      </cc:Work>
    </rdf:RDF>
  </metadata>
  <g
     id="layer1"
     inkscape:groupmode="layer"
     inkscape:label="Layer 1">
    <path
       d="m 25.141182,0.15 c 13.738974,0 25.008819,11.216932 25.008819,24.973549 0,13.791889 -11.269845,25.026454 -25.008819,25.026454 C 11.366928,50.150003 0.15,38.915438 0.15,25.123549 0.15,11.366932 11.366928,0.15 25.141182,0.15 M 21.684388,46.746123 32.354584,28.245239 h -7.213402 l 3.580244,-6.208113 16.931215,-0.01765 -3.580246,6.243387 -6.137562,-0.01771 -10.793651,18.783068 c 12.028217,0 21.887127,-9.858905 21.887127,-21.904761 0,-11.992946 -9.85891,-21.8342163 -21.887127,-21.8342163 -0.881836,0 -1.763669,0.05291 -2.574958,0.1587279 L 11.807849,22.037126 h 13.333333 l -3.615525,6.208113 H 4.6120769 L 18.403969,4.3651683 C 9.6385333,7.2046745 3.2716882,15.458645 3.2716882,25.123549 c 0,10.881834 7.9894228,19.947089 18.4126998,21.622574"
       style="fill:#004f8a;fill-opacity:1;fill-rule:evenodd;stroke:none;stroke-width:1.76366"
       id="path732" />
  </g>
</svg>
